# xmcd
#
# Track frame offsets: 
#        150
#        10415
#        35031
#        48077
#        70473
#        93076
#        109425
#        126107
#        150511
#        164050
#        182371
#        212911
#        226768
#        237907
#        250730
#
# Disc length: 3556 seconds
#
# Revision: 0
# Processed by: cddbd v1.5.2PL0 Copyright (c) Steve Scherf et al.
# Submitted via: ExactAudioCopy v0.99pb3
#
DISCID=c50de20f
DTITLE=Big Joe Shelton - Black Prairie Blues
DYEAR=2008
DGENRE=Blues
TTITLE0=Ribs And Cat Whisky
TTITLE1=In Mississippi
TTITLE2=Chitlin' Lovin' Man
TTITLE3=Mississippi Night
TTITLE4=Hope We Live To See The Day
TTITLE5=One Too Many
TTITLE6=Devil Lives In Memphis
TTITLE7=Black Prairie Blues
TTITLE8=Nothin' Can Save It
TTITLE9=Scratchin' Yo Itch
TTITLE10=Best I Can Tell
TTITLE11=Cat Fish Alley
TTITLE12=Ears Like A Mule
TTITLE13=Can't Come Back
TTITLE14=Be A Woman
EXTD=
EXTT0=
EXTT1=
EXTT2=
EXTT3=
EXTT4=
EXTT5=
EXTT6=
EXTT7=
EXTT8=
EXTT9=
EXTT10=
EXTT11=
EXTT12=
EXTT13=
EXTT14=
PLAYORDER=
